# xmcd CD database file
#
# Track frame offsets:
#	150
#	56803
#	139861
#	153332
#	243965
#	259276
#	291546
#
# Disc length: 4531 seconds
#
# Revision: 0
# Processed by: cddbd v1.5.2PL0 Copyright (c) Steve Scherf et al.
# Submitted via: CDex 1.70beta2
#
DISCID=6b11b107
DTITLE=Wadada Leo Smith - Kabell Years: 1971-1979 (Ankreanvention)
DYEAR=1900
DGENRE=Jazz
TTITLE0=Life Sequence 1
TTITLE1=Love is a Rare Beauty: Movements 1-5
TTITLE2=Aura
TTITLE3=Ankrasmation
TTITLE4=Atoke
TTITLE5=Fana
TTITLE6=The Zebra Goes Wild
EXTD=
EXTT0=
EXTT1=
EXTT2=
EXTT3=
EXTT4=
EXTT5=
EXTT6=
PLAYORDER=
